<svg width="800" height="560" viewBox="0 0 800 560" xmlns="http://www.w3.org/2000/svg" role="img" aria-label="Woman preparing food">
  <defs>
    <linearGradient id="bg" x1="0" y1="0" x2="1" y2="1">
      <stop offset="0" stop-color="#3a271c"/>
      <stop offset="1" stop-color="#11110f"/>
    </linearGradient>
  </defs>
  <rect width="800" height="560" fill="url(#bg)"/>
  <rect x="40" y="35" width="120" height="180" fill="#4a311f" opacity="0.65"/>
  <rect x="180" y="65" width="120" height="160" fill="#4a311f" opacity="0.55"/>
  <rect x="80" y="265" width="250" height="170" rx="18" fill="#1b1b18"/>
  <ellipse cx="510" cy="448" rx="170" ry="52" fill="#322015"/>
  <ellipse cx="510" cy="438" rx="145" ry="38" fill="#d5a86a"/>
  <circle cx="510" cy="244" r="82" fill="#b77346"/>
  <path d="M428 251c14-67 149-73 165 0v135H428z" fill="#1f6a53"/>
  <path d="M435 247c29-42 117-43 153 0" stroke="#e2a94f" stroke-width="14" fill="none"/>
  <circle cx="472" cy="236" r="8" fill="#2e221a"/>
  <circle cx="541" cy="236" r="8" fill="#2e221a"/>
  <path d="M472 271c20 16 46 16 66 0" stroke="#6b2b1f" stroke-width="6" fill="none"/>
  <rect x="380" y="310" width="66" height="20" rx="10" fill="#bb8746" transform="rotate(-20 380 310)"/>
  <rect x="570" y="312" width="64" height="20" rx="10" fill="#bb8746" transform="rotate(15 570 312)"/>
</svg>